<svg width="2168" height="816" viewBox="0 0 2168 816" fill="none" xmlns="http://www.w3.org/2000/svg">
<path d="M346.434 149.781C339.675 125.973 324.063 106.196 302.453 94.1326C291.347 87.9424 279.32 84.1965 267.039 82.895C266.468 77.7206 265.548 72.5462 264.12 67.4353C257.361 43.6267 241.749 23.8497 220.139 11.7867C198.529 -0.276258 173.523 -3.19677 149.724 3.56486C125.924 10.3265 106.155 25.9449 94.0966 47.5631C87.9088 58.6737 84.1643 70.705 82.8633 82.9902C77.6909 83.5616 72.5185 84.4822 67.4095 85.9107C43.6101 92.6724 23.8406 108.291 11.7822 129.909C-0.276148 151.527 -3.19555 176.542 3.5635 200.351C10.3225 224.159 25.935 243.936 47.5449 255.999C58.6513 262.189 70.678 265.935 82.9585 267.237C83.5297 272.411 84.4499 277.586 85.8779 282.696C92.6369 306.505 108.249 326.282 129.859 338.345C151.469 350.408 176.475 353.328 200.274 346.567C224.073 339.805 243.843 324.187 255.901 302.569C262.089 291.458 265.834 279.427 267.135 267.141C272.307 266.57 277.479 265.65 282.588 264.221C306.388 257.459 326.157 241.841 338.216 220.223C350.242 198.605 353.162 173.59 346.434 149.781ZM122.18 63.245C130.05 49.1503 142.933 38.9285 158.482 34.516C174.031 30.1035 190.342 32.0082 204.463 39.8808C218.584 47.7535 228.77 60.6419 233.181 76.1968C234.037 79.1808 234.577 82.1966 234.958 85.2441C236.29 95.8468 234.863 106.545 230.61 116.449C229.785 118.386 228.865 120.322 227.818 122.195C225.438 126.481 221.059 133.75 215.791 142.321C194.53 128.861 151.882 101.974 137.824 94.1326C130.557 90.0693 122.878 87.1488 115.008 85.1806C115.929 77.5619 118.34 70.1336 122.18 63.245ZM198.783 175.082C198.783 188.224 188.12 198.89 174.983 198.89C161.846 198.89 151.184 188.224 151.184 175.082C151.184 161.939 161.846 151.273 174.983 151.273C188.12 151.273 198.783 161.939 198.783 175.082ZM94.0649 212.255C90.0031 219.524 87.0837 227.207 85.1163 235.079C77.5005 234.127 70.0751 231.714 63.1891 227.873C49.0998 220.001 38.8819 207.112 34.4711 191.557C30.0602 176.002 31.9642 159.686 39.8339 145.559C47.7036 131.433 60.587 121.243 76.136 116.83C79.1188 115.973 82.1335 115.433 85.1798 115.052C95.7785 113.719 106.472 115.148 116.373 119.401C118.309 120.227 120.244 121.179 122.117 122.227C126.4 124.608 133.667 128.988 142.235 134.258C128.78 155.527 101.935 198.224 94.0649 212.255ZM227.786 286.887C219.916 300.981 207.033 311.203 191.484 315.616C175.935 320.028 159.625 318.124 145.503 310.251C131.382 302.378 121.196 289.49 116.785 273.935C115.929 270.951 115.389 267.935 115.008 264.888C113.676 254.285 115.104 243.587 119.324 233.683C120.149 231.746 121.069 229.81 122.148 227.937C124.528 223.651 128.907 216.382 134.175 207.811C155.436 221.27 198.084 248.158 212.142 255.999C219.409 260.062 227.088 262.983 234.958 264.951C234.037 272.57 231.626 279.998 227.786 286.887ZM310.101 204.541C302.231 218.667 289.347 228.857 273.798 233.27C270.816 234.127 267.801 234.667 264.755 235.048C254.156 236.381 243.462 234.952 233.562 230.699C231.626 229.873 229.69 228.953 227.818 227.873C223.534 225.492 216.267 221.112 207.699 215.842C221.154 194.573 248.032 151.908 255.87 137.845C259.931 130.576 262.851 122.893 264.818 115.021C272.434 115.973 279.859 118.386 286.745 122.227C300.835 130.099 311.053 142.988 315.463 158.543C319.874 174.098 317.97 190.446 310.101 204.541Z" fill="white"/>
<path d="M460.354 180.383C460.354 233.968 504.145 277.744 557.678 277.744C591.346 277.744 622.349 260.57 640.182 232.254C640.182 232.254 641.198 230.571 643.546 230.571C644.212 230.571 645.228 230.92 646.592 231.587L658.365 238.317C658.365 238.317 662.744 241.015 660.047 245.047C637.834 280.093 599.438 301.298 557.678 301.298C491.007 301.298 436.776 247.047 436.776 180.351C436.776 113.306 491.007 59.0859 557.678 59.0859C599.787 59.0859 638.85 80.6406 660.745 116.036C662.427 119.052 660.396 122.099 659.063 122.766L646.941 129.845C645.609 130.194 644.593 130.512 643.895 130.512C641.547 130.512 640.531 128.829 640.531 128.829C623.015 100.195 591.695 82.6723 557.678 82.6723C504.113 82.6723 460.354 126.48 460.354 180.383Z" fill="white"/>
<path d="M678.198 215.081C678.198 168.257 716.245 130.195 763.083 130.195C809.888 130.195 847.618 168.257 847.618 215.081C847.618 261.904 809.888 299.998 763.083 299.998C716.277 299.998 678.198 261.904 678.198 215.081ZM701.775 215.081C701.775 248.762 729.383 276.062 763.083 276.062C796.751 276.062 824.041 248.762 824.041 215.081C824.041 181.4 796.751 154.099 763.083 154.099C729.414 154.099 701.775 181.4 701.775 215.081Z" fill="white"/>
<path d="M1134.51 200.605V293.237C1134.51 296.284 1132.16 298.633 1129.12 298.633H1116.33C1113.32 298.633 1110.94 295.935 1110.94 292.919V200.605C1110.94 175.337 1090.4 154.798 1065.46 154.798C1040.2 154.798 1019.67 175.337 1019.67 200.605V293.237C1019.32 296.284 1016.98 298.633 1014.28 298.633H1001.49C998.443 298.633 996.095 295.935 996.095 292.919V200.605C996.095 175.337 975.564 154.798 950.305 154.798C925.395 154.798 904.832 175.337 904.832 200.605V292.919C904.832 295.967 902.484 298.633 899.437 298.633H886.649C883.635 298.633 881.255 296.284 881.255 293.237V138.925C881.255 135.91 883.952 133.529 886.967 133.529H899.088C902.135 133.529 904.8 135.878 904.8 138.925V141.275C904.8 143.624 906.165 144.989 907.847 144.989C908.513 144.989 909.528 144.639 910.195 143.973C921.65 135.878 935.454 131.18 950.273 131.18C972.486 131.18 992.033 141.274 1004.82 157.464C1005.49 158.48 1006.85 159.147 1007.87 159.147C1009.2 159.147 1010.22 158.48 1010.88 157.464C1023.67 141.624 1043.22 131.18 1065.43 131.18C1103.54 131.18 1134.51 162.194 1134.51 200.605Z" fill="white"/>
<path d="M1427.82 200.605V293.237C1427.82 296.284 1425.47 298.633 1422.42 298.633H1409.64C1406.59 298.633 1404.24 295.935 1404.24 292.919V200.605C1404.24 175.337 1383.71 154.798 1358.8 154.798C1333.54 154.798 1312.98 175.337 1312.98 200.605V293.237C1312.63 296.284 1310.28 298.633 1307.58 298.633H1294.8C1291.78 298.633 1289.4 295.935 1289.4 292.919V200.605C1289.4 175.337 1268.87 154.798 1243.61 154.798C1218.7 154.798 1198.14 175.337 1198.14 200.605V292.919C1198.14 295.967 1195.79 298.633 1192.74 298.633H1179.96C1176.91 298.633 1174.56 296.284 1174.56 293.237V138.925C1174.56 135.91 1177.26 133.529 1180.27 133.529H1192.39C1195.44 133.529 1198.11 135.878 1198.11 138.925V141.275C1198.11 143.624 1199.44 144.989 1201.12 144.989C1201.79 144.989 1202.8 144.639 1203.47 143.973C1214.92 135.878 1228.73 131.18 1243.55 131.18C1265.76 131.18 1285.31 141.274 1298.1 157.464C1298.76 158.48 1300.13 159.147 1301.14 159.147C1302.51 159.147 1303.49 158.48 1304.19 157.464C1316.98 141.624 1336.52 131.18 1358.74 131.18C1396.85 131.18 1427.82 162.194 1427.82 200.605Z" fill="white"/>
<path d="M1480.34 180.383C1480.34 233.968 1524.1 277.744 1577.66 277.744C1611.33 277.744 1642.33 260.57 1660.17 232.254C1660.17 232.254 1661.18 230.571 1663.53 230.571C1664.2 230.571 1665.21 230.92 1666.54 231.587L1678.32 238.317C1678.32 238.317 1682.7 241.015 1680 245.047C1657.79 280.093 1619.39 301.298 1577.63 301.298C1510.96 301.298 1456.73 247.047 1456.73 180.351C1456.73 113.306 1510.96 59.0859 1577.63 59.0859C1619.74 59.0859 1658.8 80.6406 1680.66 116.036C1682.35 119.052 1680.32 122.099 1678.98 122.766L1666.86 129.845C1665.5 130.194 1664.51 130.512 1663.81 130.512C1661.47 130.512 1660.45 128.829 1660.45 128.829C1642.93 100.195 1611.61 82.6723 1577.6 82.6723C1524.13 82.6723 1480.34 126.48 1480.34 180.383Z" fill="white"/>
<path d="M1867.95 138.925V293.554C1867.95 296.602 1865.6 298.602 1862.55 298.602H1850.08C1847.04 298.602 1844.37 295.903 1844.37 292.887C1844.37 292.887 1844.37 285.491 1844.37 283.11C1844.37 281.078 1843.01 279.078 1841.01 279.078C1840.34 279.078 1839.33 279.428 1838.31 280.443C1826.54 292.221 1804.29 300.982 1783.41 300.982C1736.61 300.982 1698.53 262.92 1698.53 216.065C1698.53 169.242 1736.58 131.18 1783.41 131.18C1804.29 131.18 1823.49 138.925 1838.31 151.719C1839.33 152.385 1840.34 152.734 1841.33 152.734C1843.01 152.734 1844.37 151.369 1844.37 149.02C1844.37 146.671 1844.37 139.243 1844.37 139.243C1844.37 136.195 1847.07 133.529 1850.08 133.529H1862.21C1865.25 133.561 1867.95 135.91 1867.95 138.925ZM1844.37 216.097C1844.37 182.416 1817.08 155.115 1783.41 155.115C1749.75 155.115 1722.11 182.416 1722.11 216.097C1722.11 249.778 1749.71 277.079 1783.41 277.079C1817.08 277.079 1844.37 249.778 1844.37 216.097Z" fill="white"/>
<path d="M1986.82 136.925V149.401C1986.82 152.449 1984.12 154.798 1981.11 155.115C1952.48 158.163 1930.27 182.067 1930.27 211.367V293.554C1929.92 296.252 1927.57 298.601 1924.88 298.601H1912.09C1909.04 298.601 1906.69 295.903 1906.69 292.887V139.275C1906.69 135.91 1909.39 133.561 1912.41 133.561H1924.53C1927.54 133.561 1929.92 135.592 1930.24 138.608V147.37C1930.59 149.052 1931.92 150.068 1933.6 150.068C1934.62 150.068 1935.63 149.719 1936.3 149.052C1948.77 138.925 1964.26 132.545 1981.08 131.18C1984.12 131.529 1986.82 133.878 1986.82 136.925Z" fill="white"/>
<path d="M2167.66 221.146C2167.31 224.511 2164.97 226.86 2161.6 227.209H2027.25C2024.55 227.209 2023.22 229.241 2023.53 231.241C2030.61 257.176 2054.51 276.382 2082.46 276.382C2101.98 276.382 2120.86 266.604 2131.96 251.113C2132.98 249.748 2134.66 248.764 2136.66 248.764C2137.68 248.764 2138.69 249.113 2139.36 249.43L2150.46 255.811C2152.81 257.494 2153.83 260.859 2152.5 263.208C2136.34 286.445 2110.42 300.254 2082.46 300.254C2035.66 300.254 1997.61 262.192 1997.61 215.368C1997.61 168.545 2035.66 130.451 2082.46 130.451C2127.59 130.515 2168.33 165.91 2167.66 221.146ZM2023.5 199.242C2023.15 201.274 2024.52 203.274 2027.22 203.623H2137.68C2140.37 203.274 2141.71 201.274 2141.39 199.242C2134.31 173.307 2110.74 154.101 2082.46 154.101C2054.51 154.101 2030.58 173.307 2023.5 199.242Z" fill="white"/>
<path d="M1019.07 401.863C964.739 401.863 920.313 446.289 920.313 500.966C920.313 555.302 964.739 599.728 1019.07 599.728C1053.25 599.728 1084.69 582.299 1102.8 553.594C1102.8 553.594 1103.83 551.885 1106.22 551.885C1106.9 551.885 1107.93 552.227 1109.29 552.91L1121.25 559.745C1121.25 559.745 1125.7 562.479 1122.96 566.58C1100.41 602.12 1061.45 623.649 1019.07 623.649C951.411 623.649 896.392 568.63 896.392 500.966C896.392 432.961 951.411 377.941 1019.07 377.941C1061.79 377.941 1101.43 399.813 1123.65 435.695C1125.35 438.77 1123.3 441.846 1121.94 442.529L1109.63 449.706C1108.27 450.048 1107.24 450.389 1106.56 450.389C1104.17 450.389 1103.14 448.681 1103.14 448.681C1085.37 419.633 1053.59 401.863 1019.07 401.863Z" fill="white"/>
<path d="M1227.71 622.283C1180.21 622.283 1141.59 583.666 1141.59 536.165C1141.59 488.664 1180.21 450.048 1227.71 450.048C1275.21 450.048 1313.49 488.664 1313.49 536.165C1313.49 583.666 1275.21 622.283 1227.71 622.283ZM1227.71 474.311C1193.54 474.311 1165.51 501.992 1165.51 536.165C1165.51 570.339 1193.54 598.019 1227.71 598.019C1261.88 598.019 1289.56 570.339 1289.56 536.165C1289.56 501.992 1261.88 474.311 1227.71 474.311Z" fill="white"/>
<path d="M1416.31 451.073C1455.27 451.073 1486.71 482.513 1486.71 521.47V615.106C1486.71 618.182 1484.32 620.916 1481.24 620.916H1468.25C1465.18 620.916 1462.79 618.523 1462.79 615.448V521.47C1462.79 495.84 1441.94 474.994 1416.31 474.994C1391.02 474.994 1370.18 495.84 1370.18 521.47V615.448C1369.83 618.523 1367.44 620.916 1364.37 620.916H1351.72C1348.65 620.916 1346.25 618.182 1346.25 615.106V459.275C1346.25 455.857 1348.65 453.465 1352.06 453.465H1364.37C1367.44 453.465 1369.83 455.857 1370.18 458.933V460.983C1370.18 463.717 1371.54 464.742 1373.25 464.742C1373.94 464.742 1374.62 464.742 1375.3 464.401C1386.92 455.857 1400.93 451.073 1416.31 451.073Z" fill="white"/>
<path d="M1596.44 451.073C1635.4 451.073 1666.84 482.513 1666.84 521.47V615.106C1666.84 618.182 1664.45 620.916 1661.37 620.916H1648.39C1645.31 620.916 1642.92 618.523 1642.92 615.448V521.47C1642.92 495.84 1622.07 474.994 1596.44 474.994C1571.15 474.994 1550.31 495.84 1550.31 521.47V615.448C1549.97 618.523 1547.57 620.916 1544.5 620.916H1531.85C1528.78 620.916 1526.39 618.182 1526.39 615.106V459.275C1526.39 455.857 1528.78 453.465 1532.2 453.465H1544.5C1547.57 453.465 1549.97 455.857 1550.31 458.933V460.983C1550.31 463.717 1551.68 464.742 1553.38 464.742C1554.07 464.742 1554.75 464.742 1555.43 464.401C1567.05 455.857 1581.06 451.073 1596.44 451.073Z" fill="white"/>
<path d="M1784.43 450.389C1830.23 450.389 1871.58 486.272 1870.89 542.316C1870.55 545.734 1868.16 548.126 1864.74 548.468H1728.39C1725.66 548.468 1724.29 550.518 1724.63 552.568C1731.81 578.882 1756.07 598.361 1784.43 598.361C1804.26 598.361 1823.39 588.451 1834.67 572.731C1835.7 571.364 1837.4 570.339 1839.45 570.339C1840.48 570.339 1841.5 570.68 1842.19 571.022L1853.47 577.515C1855.86 579.224 1856.88 582.641 1855.52 585.033C1839.11 608.613 1812.8 622.624 1784.43 622.624C1736.93 622.624 1698.32 584.008 1698.32 536.507C1698.32 489.006 1736.93 450.389 1784.43 450.389ZM1784.43 474.311C1756.07 474.311 1731.81 493.79 1724.63 520.104C1724.29 522.154 1725.66 524.204 1728.39 524.546H1840.48C1843.21 524.204 1844.58 522.154 1844.24 520.104C1837.06 493.79 1813.14 474.311 1784.43 474.311Z" fill="white"/>
<path d="M2055.78 569.313C2057.49 569.997 2058.18 571.706 2058.18 573.414C2058.18 574.44 2058.18 575.123 2057.49 575.806C2042.8 604.512 2013.41 622.624 1981.29 622.624C1933.78 622.624 1895.17 584.008 1895.17 536.507C1895.17 489.006 1933.78 450.389 1981.29 450.389C2013.07 450.389 2042.46 468.501 2057.15 496.524C2057.49 496.865 2057.83 497.549 2057.83 498.232C2057.83 500.283 2056.81 501.992 2055.44 502.675L2042.46 508.484C2041.43 509.168 2040.06 509.168 2039.04 509.168C2037.67 509.168 2036.65 508.826 2035.96 507.459C2025.37 487.297 2004.18 474.653 1981.29 474.653C1947.11 474.653 1919.09 502.333 1919.09 536.507C1919.09 570.68 1947.11 598.361 1981.29 598.361C2004.52 598.361 2026.05 585.375 2036.65 564.529C2036.99 563.504 2038.36 562.821 2039.72 562.821C2040.75 562.821 2041.77 563.162 2042.8 563.504L2055.78 569.313Z" fill="white"/>
<path d="M2125.12 477.387C2121.7 477.387 2118.97 480.12 2118.97 483.538V560.428C2118.97 586.059 2130.25 595.969 2161 596.994C2164.08 596.994 2166.81 599.728 2166.81 603.145V615.448C2166.81 618.523 2164.76 620.916 2161.69 621.257C2122.05 620.232 2095.05 603.829 2095.05 560.428V482.854C2094.71 479.779 2091.97 477.387 2088.9 477.387H2079.67C2076.94 477.045 2074.89 475.336 2074.54 472.944V458.249C2075.23 455.515 2077.28 453.465 2080.01 453.465H2089.58C2092.31 453.123 2094.71 451.073 2095.05 447.997V387.852C2095.05 384.434 2097.44 382.042 2100.86 382.042H2113.16C2116.24 382.042 2118.63 384.434 2118.97 387.51V447.314C2118.97 450.731 2121.36 453.123 2124.44 453.465H2161.35C2164.42 453.465 2166.81 456.199 2166.81 459.275V471.919C2166.81 474.653 2164.76 477.045 2161.69 477.387H2125.12Z" fill="white"/>
<path d="M1670.2 724.539C1687.69 724.539 1701.78 738.76 1701.78 756.125C1701.78 773.616 1687.69 787.838 1670.2 787.838C1662.27 787.838 1655.1 784.949 1649.45 780.155H1649.58V783.806C1649.58 785.584 1648.05 786.949 1646.31 787.076H1641.77C1640.02 786.949 1638.63 785.679 1638.5 783.933V703.016C1638.76 701.365 1640.12 700 1641.77 700H1646.31C1648.08 700 1649.58 701.524 1649.58 703.27V732.094C1649.58 732.094 1649.58 732.221 1649.45 732.221L1649.58 732.094C1655.1 727.459 1662.27 724.539 1670.2 724.539ZM1670.2 776.886C1681.53 776.886 1690.83 767.585 1690.83 756.125C1690.83 744.792 1681.53 735.491 1670.2 735.491C1658.75 735.491 1649.58 744.792 1649.58 756.125C1649.58 767.585 1658.75 776.886 1670.2 776.886Z" fill="white"/>
<path d="M1761.24 725.553H1766.04C1768.16 725.553 1769.05 726.823 1769.05 728.188C1769.05 728.568 1769.05 728.949 1768.92 729.203L1740.62 794.883C1732.34 811.867 1719.74 814.882 1710.31 815.263C1708.66 815.136 1707.3 813.644 1707.3 811.867V807.581C1707.3 804.438 1709.93 804.184 1710.57 804.184C1717.48 803.804 1725.16 801.042 1730.69 790.217L1731.57 787.963C1731.83 787.328 1731.95 786.566 1731.95 786.09C1731.95 785.455 1731.83 784.82 1731.57 784.312C1723.64 766.186 1715.36 747.457 1707.3 729.33C1707.17 728.949 1707.04 728.568 1707.04 728.188C1707.04 726.823 1708.06 725.553 1710.06 725.553H1714.95C1716.47 725.553 1717.71 726.061 1718.6 727.934L1738.21 772.471C1738.33 772.471 1738.33 772.345 1738.33 772.345L1757.34 728.188C1758.2 726.188 1759.59 725.553 1761.24 725.553Z" fill="white"/>
<path d="M1866.56 703.43V783.966C1866.56 785.712 1865.17 787.109 1863.42 787.236H1858.79C1857.01 787.109 1855.65 785.712 1855.65 783.966V780.189V780.316C1850.13 784.95 1842.83 787.998 1835.02 787.998C1817.54 787.998 1803.32 773.776 1803.32 756.285C1803.32 738.794 1817.54 724.699 1835.02 724.699C1842.83 724.699 1850 727.461 1855.52 732.254L1855.65 732.381C1855.65 732.254 1855.65 732.254 1855.65 732.254V703.303C1855.78 701.557 1857.17 700.16 1858.92 700.16H1863.33C1865.2 700.16 1866.56 701.652 1866.56 703.43ZM1834.99 776.887C1846.32 776.887 1855.62 767.713 1855.62 756.253C1855.62 744.92 1846.32 735.619 1834.99 735.619C1823.54 735.619 1814.36 744.92 1814.36 756.253C1814.36 767.713 1823.57 776.887 1834.99 776.887Z" fill="white"/>
<path d="M1892.46 703.43V708.953C1892.46 710.731 1890.94 712.223 1889.19 712.223H1884.78C1882.91 712.223 1881.38 710.699 1881.38 708.953V703.43C1881.38 701.557 1882.91 700.033 1884.78 700.033H1889.19C1890.94 700.033 1892.46 701.525 1892.46 703.43ZM1892.46 728.699V783.681C1892.46 785.554 1890.94 787.077 1889.19 787.077H1884.78C1882.91 787.077 1881.38 785.554 1881.38 783.681V728.699C1881.38 726.826 1882.91 725.302 1884.78 725.302H1889.19C1890.94 725.302 1892.46 726.826 1892.46 728.699Z" fill="white"/>
<path d="M1974.68 724.537C1989.02 724.537 2000.73 736.251 2000.73 750.6V783.932C2000.73 785.55 1999.21 786.947 1997.59 787.074H1992.92C1991.15 786.947 1989.78 785.551 1989.78 783.805V750.6C1989.78 742.282 1982.99 735.489 1974.68 735.489C1966.4 735.489 1959.57 742.282 1959.57 750.6V783.932C1959.45 785.677 1958.05 786.947 1956.31 787.074H1951.77C1949.99 786.947 1948.5 785.551 1948.5 783.805V750.6C1948.5 742.282 1941.71 735.489 1933.39 735.489C1925.08 735.489 1918.29 742.282 1918.29 750.6V783.805C1918.29 785.582 1916.89 786.947 1915.15 787.074H1910.48C1908.83 786.947 1907.34 785.55 1907.34 783.932V728.569C1907.34 726.823 1908.86 725.299 1910.61 725.299H1915.02C1916.8 725.299 1918.29 726.823 1918.29 728.569V729.331C1922.57 726.315 1927.84 724.537 1933.39 724.537C1941.68 724.537 1949.1 728.315 1954.02 734.473H1954.15C1958.97 728.569 1966.4 724.537 1974.68 724.537Z" fill="white"/>
<path d="M2063.18 725.426H2067.59C2069.37 725.426 2070.73 726.823 2070.86 728.442V784.059C2070.73 785.836 2069.33 787.074 2067.72 787.074H2063.18C2061.31 787.074 2059.91 785.551 2059.91 783.805V780.281C2059.91 780.154 2059.91 780.154 2059.91 780.154V780.281C2055.37 784.566 2046.96 787.836 2039.28 787.836C2021.8 787.836 2007.58 773.741 2007.58 756.25C2007.58 738.759 2021.8 724.537 2039.28 724.537C2046.96 724.537 2054.26 727.426 2059.91 732.219V728.696C2059.91 726.95 2061.4 725.426 2063.18 725.426ZM2039.28 776.884C2050.61 776.884 2059.91 767.583 2059.91 756.25C2059.91 744.79 2050.61 735.616 2039.28 735.616C2027.83 735.616 2018.66 744.79 2018.66 756.25C2018.66 767.583 2027.83 776.884 2039.28 776.884Z" fill="white"/>
<path d="M2133.44 725.299H2137.85C2139.47 725.299 2140.86 726.696 2141.12 728.315V792.344C2141.12 808.185 2130.93 814.629 2116.46 814.978C2114.59 814.978 2113.19 813.581 2113.19 811.708V807.359C2113.19 805.581 2114.59 804.089 2116.46 804.089C2124.9 803.835 2130.04 801.963 2130.04 792.376V780.154C2124.52 784.947 2117.35 787.836 2109.41 787.836C2092.06 787.836 2077.84 773.614 2077.84 756.123C2077.84 738.759 2092.06 724.537 2109.41 724.537C2117.09 724.537 2124.27 727.299 2129.79 731.838C2129.91 732.092 2130.04 732.092 2130.04 732.219L2130.17 728.696C2130.17 726.823 2131.56 725.299 2133.44 725.299ZM2109.41 776.884C2120.87 776.884 2130.04 767.583 2130.04 756.123C2130.04 744.79 2120.87 735.489 2109.41 735.489C2098.09 735.489 2088.79 744.79 2088.79 756.123C2088.79 767.583 2098.09 776.884 2109.41 776.884Z" fill="white"/>
<path d="M2166.34 703.43V708.953C2166.34 710.731 2164.82 712.223 2163.07 712.223H2158.66C2156.76 712.223 2155.27 710.699 2155.27 708.953V703.43C2155.27 701.557 2156.79 700.033 2158.66 700.033H2163.07C2164.85 700.033 2166.34 701.525 2166.34 703.43ZM2166.34 728.699V783.681C2166.34 785.554 2164.82 787.077 2163.07 787.077H2158.66C2156.76 787.077 2155.27 785.554 2155.27 783.681V728.699C2155.27 726.826 2156.79 725.302 2158.66 725.302H2163.07C2164.85 725.302 2166.34 726.826 2166.34 728.699Z" fill="white"/>
</svg>
